<?xml version="1.0" encoding="UTF-8"?>
<!DOCTYPE svg PUBLIC "-//W3C//DTD SVG 1.1//EN" "http://www.w3.org/Graphics/SVG/1.1/DTD/svg11.dtd">
<!-- Creator: CorelDRAW 2021.5 -->
<svg xmlns="http://www.w3.org/2000/svg" xml:space="preserve" width="6.5802mm" height="6.5802mm" version="1.1" style="shape-rendering:geometricPrecision; text-rendering:geometricPrecision; image-rendering:optimizeQuality; fill-rule:evenodd; clip-rule:evenodd"
viewBox="0 0 24.18 24.18"
 xmlns:xlink="http://www.w3.org/1999/xlink"
 xmlns:xodm="http://www.corel.com/coreldraw/odm/2003">
 <defs>
  <style type="text/css">
   <![CDATA[
    .str0 {stroke:#003399;stroke-width:1.24;stroke-miterlimit:22.9256}
    .fil0 {fill:none}
    .fil1 {fill:#003399}
   ]]>
  </style>
 </defs>
 <g id="Слой_x0020_1">
  <metadata id="CorelCorpID_0Corel-Layer"/>
  <g id="_2174867143792">
   <circle class="fil0 str0" cx="12.09" cy="12.09" r="11.47"/>
  </g>
  <path class="fil1" d="M12.09 10.58l0 0c3.81,0 6.93,3.12 6.93,6.93l0 0.08c0,0.86 -0.71,1.57 -1.57,1.57l-10.73 0c-0.86,0 -1.57,-0.71 -1.57,-1.57l0 -0.08c0,-3.81 3.12,-6.93 6.93,-6.93zm0 -6.99c1.71,0 3.1,1.39 3.1,3.1 0,1.71 -1.39,3.1 -3.1,3.1 -1.71,0 -3.1,-1.39 -3.1,-3.1 0,-1.71 1.39,-3.1 3.1,-3.1z"/>
 </g>
</svg>
