<?xml version="1.0" encoding="UTF-8"?>
<!DOCTYPE svg PUBLIC "-//W3C//DTD SVG 1.1//EN" "http://www.w3.org/Graphics/SVG/1.1/DTD/svg11.dtd">
<!-- Creator: CorelDRAW 2021.5 -->
<svg xmlns="http://www.w3.org/2000/svg" xml:space="preserve" width="2.4111mm" height="4.5213mm" version="1.1" style="shape-rendering:geometricPrecision; text-rendering:geometricPrecision; image-rendering:optimizeQuality; fill-rule:evenodd; clip-rule:evenodd"
viewBox="0 0 5.37 10.06"
 xmlns:xlink="http://www.w3.org/1999/xlink"
 xmlns:xodm="http://www.corel.com/coreldraw/odm/2003">
 <defs>
  <style type="text/css">
   <![CDATA[
    .fil0 {fill:#003399;fill-rule:nonzero}
   ]]>
  </style>
 </defs>
 <g id="Слой_x0020_1">
  <metadata id="CorelCorpID_0Corel-Layer"/>
  <path class="fil0" d="M2.95 1.2c0.07,-0.33 0.26,-0.61 0.55,-0.85 0.29,-0.24 0.6,-0.35 0.93,-0.35 0.33,0 0.58,0.12 0.75,0.35 0.18,0.23 0.22,0.52 0.15,0.86 -0.07,0.33 -0.25,0.62 -0.54,0.86 -0.28,0.24 -0.59,0.36 -0.92,0.36 -0.33,0 -0.59,-0.12 -0.77,-0.36 -0.18,-0.24 -0.23,-0.52 -0.16,-0.86zm-2.95 8.86l0.12 -0.52 1.02 0 1.27 -5.7 -1.12 0 0.12 -0.52c0.63,-0.02 1.24,-0.04 1.83,-0.08 0.59,-0.03 1.16,-0.08 1.72,-0.13l-1.44 6.43 1.07 0 -0.12 0.52 -4.48 0z"/>
 </g>
</svg>
