<?xml version="1.0" encoding="UTF-8"?>
<!DOCTYPE svg PUBLIC "-//W3C//DTD SVG 1.1//EN" "http://www.w3.org/Graphics/SVG/1.1/DTD/svg11.dtd">
<!-- Creator: CorelDRAW 2021.5 -->
<svg xmlns="http://www.w3.org/2000/svg" xml:space="preserve" width="6.5802mm" height="6.5802mm" version="1.1" style="shape-rendering:geometricPrecision; text-rendering:geometricPrecision; image-rendering:optimizeQuality; fill-rule:evenodd; clip-rule:evenodd"
viewBox="0 0 24.16 24.16"
 xmlns:xlink="http://www.w3.org/1999/xlink"
 xmlns:xodm="http://www.corel.com/coreldraw/odm/2003">
 <defs>
  <style type="text/css">
   <![CDATA[
    .str0 {stroke:#003399;stroke-width:1.24;stroke-miterlimit:22.9256}
    .str1 {stroke:#003399;stroke-width:0.31;stroke-miterlimit:22.9256}
    .fil0 {fill:none}
    .fil1 {fill:#003399}
   ]]>
  </style>
 </defs>
 <g id="Слой_x0020_1">
  <metadata id="CorelCorpID_0Corel-Layer"/>
  <g id="_2174867125024">
   <circle class="fil0 str0" cx="12.08" cy="12.08" r="11.46"/>
  </g>
  <g id="_2174867123056">
   <path class="fil1 str1" d="M7.01 5.25c0,-0.42 0.22,-0.33 0.63,-0.32l6.91 0c0.13,0.57 -0.1,2.24 0.1,2.59 0.2,0.34 1.97,0.2 2.48,0.2 0.07,3.45 -0.02,7.9 -0.03,11.45 -0.33,0.13 -9.71,0.13 -10.08,0l-0.02 -13.92zm8.39 0.39c0.2,0.09 0.17,0.06 0.38,0.33 0.37,0.47 0.66,0.63 0.8,0.94l-1.18 0 0 -1.28zm-8.42 14.41l10.17 0c0.3,-0.18 0.48,-0.14 0.68,-0.5 0.22,-0.39 0.12,-2.99 0.12,-3.53l0 -8.5c-0,-0.5 -0.21,-0.57 -0.42,-0.82l-2.34 -2.57 -8.27 0c-0.67,0.43 -0.75,0.37 -0.75,1.42l-0 13.17c-0,1.01 0.12,0.94 0.8,1.34z"/>
   <path class="fil1 str1" d="M8.2 15.1c0.12,0.04 0.26,0.08 0.44,0.08l-0.07 0c0.99,0 6.59,0.09 7.1,-0.08l0.02 -0.46c-1.07,-0.2 -5.63,-0.07 -7.05,-0.07 -0.47,0 -0.52,0.12 -0.44,0.53z"/>
   <path class="fil1 str1" d="M8.2 9.01c0.55,0.17 5.97,0.08 7.02,0.08 0.17,0 0.31,-0.04 0.44,-0.07l0.03 -0.46c-1.08,-0.19 -5.62,-0.07 -7.05,-0.07 -0.48,0 -0.53,0.1 -0.43,0.52z"/>
   <path class="fil1 str1" d="M8.19 13.07c0.43,0.16 4.94,0.08 6.04,0.08 0.33,0 1.86,0.18 1.43,-0.46 -0.18,-0.26 -3.48,-0.14 -3.97,-0.14l-3.05 -0c-0.47,0.02 -0.51,0.13 -0.44,0.53z"/>
   <path class="fil1 str1" d="M8.64 11.15c0.99,0 6.58,0.09 7.03,-0.07l0.01 -0.47c-0.13,-0.03 -0.24,-0.06 -0.39,-0.06l-6.66 0c-0.66,0 -0.7,0.6 0,0.6z"/>
  </g>
 </g>
</svg>
