<?xml version="1.0" encoding="UTF-8"?>
<!DOCTYPE svg PUBLIC "-//W3C//DTD SVG 1.1//EN" "http://www.w3.org/Graphics/SVG/1.1/DTD/svg11.dtd">
<!-- Creator: CorelDRAW 2021.5 -->
<svg xmlns="http://www.w3.org/2000/svg" xml:space="preserve" width="6.5802mm" height="6.5802mm" version="1.1" style="shape-rendering:geometricPrecision; text-rendering:geometricPrecision; image-rendering:optimizeQuality; fill-rule:evenodd; clip-rule:evenodd"
viewBox="0 0 24.16 24.16"
 xmlns:xlink="http://www.w3.org/1999/xlink"
 xmlns:xodm="http://www.corel.com/coreldraw/odm/2003">
 <defs>
  <style type="text/css">
   <![CDATA[
    .str0 {stroke:#003399;stroke-width:1.24;stroke-miterlimit:22.9256}
    .fil0 {fill:none}
    .fil1 {fill:#003399}
   ]]>
  </style>
 </defs>
 <g id="Слой_x0020_1">
  <metadata id="CorelCorpID_0Corel-Layer"/>
  <g id="_2174925575088">
   <circle class="fil0 str0" cx="12.08" cy="12.08" r="11.46"/>
  </g>
  <g id="_2174925574128">
   <path class="fil1" d="M11.31 5.57c-0.06,0.06 -0.22,0.1 -0.31,0.12 -0.62,0.21 -1.59,0.52 -2.17,0.75l-1.72 0.66c-0.41,0.15 -0.85,0.36 -1.27,0.52 -0.09,0.04 -0.32,0.16 -0.41,0.16 -0.07,0.08 -0.22,0.11 -0.32,0.16 -0.1,0.05 -0.21,0.1 -0.31,0.14 -0.12,0.06 -0.23,0.1 -0.33,0.16 -0.1,0.05 -0.22,0.12 -0.32,0.16 -0.04,0.03 -0.21,0.12 -0.29,0.16 -0.07,0.04 -0.24,0.12 -0.31,0.15 -0.1,0.07 -0.18,0.08 -0.28,0.17 -0.05,0.04 -0.21,0.16 -0.22,0.22 0.01,0.11 0.13,0.22 0.19,0.26 0.13,0.07 0.21,0.13 0.33,0.19 0.09,0.05 0.24,0.13 0.31,0.18 0.1,0.06 0.18,0.1 0.29,0.16 0.1,0.05 0.2,0.09 0.3,0.15 0.11,0.02 0.53,0.22 0.6,0.28 0.14,0.03 0.42,0.19 0.57,0.25 0.88,0.38 2,0.84 2.9,1.16 0.39,0.14 0.8,0.28 1.18,0.43l0.27 0.1 0.63 0.21c0.09,0.02 0.26,0.05 0.31,0.12 0.08,-0 0.51,0.12 0.59,0.16l0.29 0.07 0.31 0.03 0.34 -0.08c0.31,-0.09 0.58,-0.15 0.88,-0.25 0.57,-0.19 1.13,-0.37 1.7,-0.58l0.85 -0.31 0.05 -0.03c0,-0 0.01,-0 0.01,-0.01 0.03,-0.01 0.05,-0.02 0.08,-0.03 0.05,-0.02 0.09,-0.03 0.14,-0.05l0.61 -0.24c0,-0 0.01,-0.01 0.01,-0.01 0,0 0.01,-0.01 0.01,-0.01l1.56 -0.65c0.17,-0.07 0.37,-0.18 0.54,-0.22l0 2.24c-0.01,0.17 -0.11,0.19 -0.36,0.39l-0.14 0.11c-0.01,0.01 -0.02,0.02 -0.03,0.03l-0.24 0.19c-0.09,0.07 -0.01,0.03 -0.15,0.11 0.06,0.12 0.6,0.46 0.66,0.57 0.07,0.01 0.13,0.08 0.23,0.16 0.12,0.1 0.61,0.51 0.68,0.52l0.45 -0.37c0.1,-0.08 0.39,-0.33 0.47,-0.36 0.02,-0.05 0.55,-0.47 0.6,-0.49 -0.04,-0.09 -0.22,-0.21 -0.3,-0.27l-0.48 -0.38c-0.06,-0.05 -0.11,-0.06 -0.14,-0.15l-0.01 -2.84c0.06,-0.13 0.16,-0.17 0.3,-0.24 0.13,-0.06 0.21,-0.15 0.34,-0.19 0.01,-0.05 -0.01,-0.01 0.05,-0.05 0.03,-0.02 0.04,-0.03 0.06,-0.04 0.23,-0.16 0.23,-0.21 0.05,-0.38 -0.07,-0.07 -0.46,-0.28 -0.56,-0.34l-1.2 -0.6c-0.1,-0.03 -0.52,-0.2 -0.58,-0.26l-0.86 -0.35c-0.29,-0.13 -0.57,-0.23 -0.86,-0.35 -0.34,-0.14 -1.57,-0.57 -1.74,-0.66l-1.43 -0.5 -0.65 -0.21c-0.06,-0.01 -0.23,-0.08 -0.28,-0.1 -0.25,-0.04 -0.47,-0.2 -0.75,-0.19 -0.13,0.01 -0.28,0.04 -0.39,0.08 -0.1,0.03 -0.27,0.1 -0.36,0.1z"/>
   <path class="fil1" d="M7.46 17.66c0.06,0.03 0.07,0.02 0.12,0.07 0.08,0.01 0.56,0.25 0.6,0.28l0.56 0.2c0.1,0.04 0.17,0.06 0.28,0.09 0.5,0.15 0.96,0.27 1.52,0.35 0.97,0.14 1.82,0.13 2.78,0.03 0.47,-0.04 0.92,-0.19 1.35,-0.3 0.05,-0.02 0.2,-0.07 0.27,-0.09l0.64 -0.25c0.1,-0.06 0.18,-0.09 0.29,-0.14 0.08,-0.04 0.2,-0.1 0.27,-0.13 0.08,-0.06 0.24,-0.14 0.34,-0.2 0.07,-0.05 0.24,-0.17 0.33,-0.21 0.04,-0.06 0.4,-0.3 0.44,-0.32 0.02,-0.13 0.14,0.03 0.14,-0.47 -0,-1.4 -0.02,-2.88 -0,-4.26 -0.26,0.06 -0.66,0.28 -0.87,0.32l-0.96 0.38c-0.39,0.15 -2.63,0.94 -3.02,0.99 -0.3,0.12 -0.62,0.12 -0.92,-0 -0.38,-0.06 -1.63,-0.48 -1.94,-0.6 -0.17,-0.07 -1.72,-0.62 -1.84,-0.69 -0.31,-0.12 -0.62,-0.25 -0.92,-0.36l-0.11 -0.04c-0.02,0.19 -0.01,4.16 -0.01,4.55 0,0.39 -0.06,0.36 0.46,0.67 0.05,0.03 0.2,0.1 0.22,0.14z"/>
  </g>
 </g>
</svg>
