<?xml version="1.0" encoding="UTF-8"?>
<!DOCTYPE svg PUBLIC "-//W3C//DTD SVG 1.1//EN" "http://www.w3.org/Graphics/SVG/1.1/DTD/svg11.dtd">
<!-- Creator: CorelDRAW 2021.5 -->
<svg xmlns="http://www.w3.org/2000/svg" xml:space="preserve" width="4.3049mm" height="4.3049mm" version="1.1" style="shape-rendering:geometricPrecision; text-rendering:geometricPrecision; image-rendering:optimizeQuality; fill-rule:evenodd; clip-rule:evenodd"
viewBox="0 0 9.78 9.78"
 xmlns:xlink="http://www.w3.org/1999/xlink"
 xmlns:xodm="http://www.corel.com/coreldraw/odm/2003">
 <defs>
  <style type="text/css">
   <![CDATA[
    .fil1 {fill:#FEFEFE}
    .fil0 {fill:#0076B7}
   ]]>
  </style>
 </defs>
 <g id="Слой_x0020_1">
  <metadata id="CorelCorpID_0Corel-Layer"/>
  <g id="_2174863146720">
   <path class="fil0" d="M1.61 3.61c0.12,-0.03 0.65,-0.01 0.82,-0.01 0.73,0 0.6,0.02 0.6,1.09l0 3.36c0,0.26 0.06,0.59 -0.2,0.65 -0.13,0.03 -0.65,0.01 -0.83,0.01 -0.27,0 -0.56,0.04 -0.59,-0.24 -0.02,-0.24 -0,-0.59 -0,-0.84l0 -3.36c0,-0.29 -0.07,-0.58 0.19,-0.65zm3.82 0.54c0.13,-0.17 0.23,-0.27 0.42,-0.39 0.19,-0.12 0.44,-0.19 0.69,-0.22 0.55,-0.07 1.13,0.04 1.48,0.31 0.75,0.57 0.73,1.75 0.73,2.92 0,0.25 0.03,1.7 -0.03,1.81 -0.11,0.2 -0.53,0.13 -0.78,0.13 -0.23,0 -0.67,0.06 -0.79,-0.1 -0.09,-0.11 -0.05,-0.68 -0.05,-0.87 0,-0.31 0,-0.61 0,-0.92 0,-0.52 0.07,-1.23 -0.2,-1.61 -0.12,-0.18 -0.31,-0.3 -0.62,-0.3 -0.32,-0.01 -0.5,0.13 -0.64,0.28 -0.32,0.37 -0.28,0.99 -0.28,1.56 0,0.24 0.02,1.71 -0.02,1.81 -0.09,0.22 -0.51,0.15 -0.76,0.15 -0.24,0 -0.67,0.07 -0.79,-0.1 -0.09,-0.14 -0.05,-1.5 -0.05,-1.78l0 -2.73c0,-0.4 -0.02,-0.5 0.41,-0.5 1.27,0 1.2,-0.12 1.2,0.62l0.06 -0.07zm-3.42 -3.04c0.63,-0.13 1.13,0.31 1.23,0.81 0.13,0.63 -0.3,1.11 -0.79,1.22 -0.65,0.15 -1.14,-0.31 -1.24,-0.8 -0.14,-0.64 0.31,-1.13 0.81,-1.23zm-2.01 -0.35l0 8.28c0.04,0.09 0.05,0.19 0.11,0.29 0.04,0.07 0.11,0.17 0.15,0.21 0.04,0.04 0.15,0.12 0.22,0.16 0.09,0.05 0.19,0.06 0.27,0.1l8.28 0c0.18,-0.09 0.43,-0.08 0.65,-0.47 0.05,-0.1 0.06,-0.2 0.11,-0.29l0 -8.28c-0.09,-0.19 -0.09,-0.44 -0.48,-0.65 -0.09,-0.05 -0.19,-0.06 -0.27,-0.1l-8.28 0c-0.09,0.04 -0.19,0.05 -0.29,0.11 -0.39,0.22 -0.38,0.47 -0.47,0.65z"/>
   <path class="fil1" d="M5.37 4.21c-0,-0.73 0.07,-0.62 -1.2,-0.62 -0.43,-0 -0.41,0.1 -0.41,0.5l0 2.73c0,0.28 -0.05,1.65 0.05,1.78 0.12,0.17 0.55,0.1 0.79,0.1 0.26,0 0.67,0.07 0.76,-0.15 0.04,-0.1 0.02,-1.57 0.02,-1.81 0,-0.57 -0.04,-1.18 0.28,-1.56 0.14,-0.16 0.32,-0.29 0.64,-0.28 0.31,0.01 0.49,0.13 0.62,0.3 0.27,0.38 0.2,1.09 0.2,1.61 0,0.31 0,0.61 0,0.92 0,0.19 -0.04,0.76 0.05,0.87 0.12,0.15 0.56,0.1 0.79,0.1 0.25,0 0.67,0.07 0.78,-0.13 0.06,-0.11 0.03,-1.56 0.03,-1.81 0,-1.17 0.02,-2.35 -0.73,-2.92 -0.35,-0.27 -0.94,-0.38 -1.48,-0.31 -0.26,0.03 -0.51,0.1 -0.69,0.22 -0.19,0.12 -0.29,0.22 -0.42,0.39l-0.06 0.07z"/>
   <path class="fil1" d="M1.61 3.61c-0.26,0.07 -0.19,0.36 -0.19,0.65l0 3.36c0,0.25 -0.02,0.6 0,0.84 0.03,0.28 0.32,0.24 0.59,0.24 0.17,0 0.69,0.02 0.83,-0.01 0.26,-0.06 0.2,-0.39 0.2,-0.65l0 -3.36c0,-1.07 0.13,-1.09 -0.6,-1.09 -0.16,0 -0.7,-0.02 -0.82,0.01z"/>
   <path class="fil1" d="M2.01 1.1c-0.49,0.11 -0.95,0.59 -0.81,1.23 0.11,0.5 0.6,0.95 1.24,0.8 0.49,-0.11 0.92,-0.59 0.79,-1.22 -0.1,-0.5 -0.6,-0.95 -1.23,-0.81z"/>
  </g>
 </g>
</svg>
