<?xml version="1.0" encoding="UTF-8"?>
<!DOCTYPE svg PUBLIC "-//W3C//DTD SVG 1.1//EN" "http://www.w3.org/Graphics/SVG/1.1/DTD/svg11.dtd">
<!-- Creator: CorelDRAW 2021.5 -->
<svg xmlns="http://www.w3.org/2000/svg" xml:space="preserve" width="4.9248mm" height="3.5742mm" version="1.1" style="shape-rendering:geometricPrecision; text-rendering:geometricPrecision; image-rendering:optimizeQuality; fill-rule:evenodd; clip-rule:evenodd"
viewBox="0 0 12.76 9.26"
 xmlns:xlink="http://www.w3.org/1999/xlink"
 xmlns:xodm="http://www.corel.com/coreldraw/odm/2003">
 <defs>
  <style type="text/css">
   <![CDATA[
    .str0 {stroke:#003399;stroke-width:0.2;stroke-miterlimit:22.9256}
    .fil0 {fill:#003399}
   ]]>
  </style>
 </defs>
 <g id="Слой_x0020_1">
  <metadata id="CorelCorpID_0Corel-Layer"/>
  <path class="fil0 str0" d="M0.1 9.16l12.57 0 0 -9.07 -12.57 0 0 9.07zm8.36 -4.53c0.04,0.06 0.16,0.17 0.22,0.22 0.08,0.08 0.14,0.14 0.22,0.22l1.24 1.22c0.05,0.05 0.07,0.07 0.12,0.11l0.55 0.55c0.04,0.04 0.08,0.06 0.12,0.11l0.56 0.56c0.03,0.02 0.04,0.03 0.06,0.05 0.1,0.1 0.44,0.46 0.51,0.5l0 -7.06c-0.11,0.07 -0.56,0.54 -0.67,0.65l-1.91 1.88c-0.04,0.04 -0.08,0.06 -0.12,0.11 -0.15,0.15 -0.29,0.29 -0.45,0.45 -0.08,0.08 -0.15,0.14 -0.23,0.21 -0.06,0.06 -0.18,0.17 -0.22,0.23zm-7.76 3.54l0.45 -0.43c0.15,-0.15 0.29,-0.3 0.45,-0.45 0.04,-0.04 0.07,-0.07 0.11,-0.11 0.25,-0.22 0.43,-0.44 0.69,-0.66l0.79 -0.77c0.18,-0.18 1.04,-1.04 1.14,-1.1l-0.49 -0.5c-0.14,-0.11 -0.74,-0.71 -0.86,-0.83 -0.08,-0.08 -0.14,-0.14 -0.22,-0.22l-0.79 -0.77c-0.04,-0.04 -0.08,-0.06 -0.12,-0.11l-0.45 -0.45c-0.08,-0.08 -0.15,-0.14 -0.23,-0.22 -0.08,-0.08 -0.14,-0.14 -0.22,-0.22 -0.04,-0.04 -0.07,-0.07 -0.11,-0.11 -0.04,-0.04 -0.07,-0.09 -0.12,-0.1l0 7.06zm0.42 0.4l10.53 0c-0.02,-0.06 -0.06,-0.07 -0.1,-0.11 -0.22,-0.21 -0.38,-0.4 -0.62,-0.6l-1.18 -1.16c-0.04,-0.04 -0.08,-0.06 -0.12,-0.11l-0.45 -0.45c-0.08,-0.08 -0.15,-0.14 -0.23,-0.22l-0.5 -0.5c-0.03,-0.02 -0.04,-0.03 -0.06,-0.05 -0.09,-0.08 -0.27,-0.29 -0.34,-0.34l-0.36 0.35c-0.04,0.04 -0.06,0.05 -0.09,0.08 -0.03,0.03 -0.06,0.06 -0.09,0.09l-0.18 0.17c-0.04,0.03 -0.06,0.05 -0.1,0.08 -0.66,0.51 -1.03,0.59 -1.77,-0.08l-0.19 -0.16c-0.06,-0.06 -0.11,-0.12 -0.18,-0.18l-0.37 -0.35c-0.08,0.05 -0.4,0.4 -0.49,0.49 -0.03,0.02 -0.03,0.02 -0.06,0.05l-1.8 1.78c-0.04,0.04 -0.08,0.07 -0.12,0.11 -0.21,0.2 -0.41,0.42 -0.62,0.61 -0.02,0.02 -0.04,0.04 -0.06,0.06l-0.44 0.45zm5.26 -3.01c0.27,0 0.46,-0.17 0.63,-0.32 0.21,-0.18 0.4,-0.41 0.55,-0.54 0.04,-0.03 0.05,-0.04 0.09,-0.08l0.8 -0.79c0.11,-0.11 0.21,-0.21 0.31,-0.31l0.33 -0.31c0.11,-0.11 0.21,-0.21 0.31,-0.31l0.32 -0.31c0.11,-0.11 0.21,-0.21 0.31,-0.31l0.33 -0.31c0.11,-0.11 0.21,-0.21 0.31,-0.31l0.32 -0.31c0.11,-0.11 0.21,-0.21 0.31,-0.31 0.08,-0.08 0.27,-0.23 0.32,-0.32l-10.53 0 1.6 1.56c0.11,0.11 0.21,0.21 0.31,0.31l0.32 0.31c0.11,0.11 0.21,0.21 0.32,0.32l0.32 0.31c0.11,0.11 0.21,0.21 0.31,0.31l0.32 0.31c0.11,0.11 0.21,0.21 0.32,0.32 0.06,0.06 0.11,0.09 0.16,0.15l0.81 0.77c0.11,0.08 0.28,0.18 0.46,0.18z"/>
 </g>
</svg>
