<?xml version="1.0" encoding="UTF-8"?>
<!DOCTYPE svg PUBLIC "-//W3C//DTD SVG 1.1//EN" "http://www.w3.org/Graphics/SVG/1.1/DTD/svg11.dtd">
<!-- Creator: CorelDRAW 2021.5 -->
<svg xmlns="http://www.w3.org/2000/svg" xml:space="preserve" width="2.6458mm" height="3.8377mm" version="1.1" style="shape-rendering:geometricPrecision; text-rendering:geometricPrecision; image-rendering:optimizeQuality; fill-rule:evenodd; clip-rule:evenodd"
viewBox="0 0 10.71 15.54"
 xmlns:xlink="http://www.w3.org/1999/xlink"
 xmlns:xodm="http://www.corel.com/coreldraw/odm/2003">
 <defs>
  <style type="text/css">
   <![CDATA[
    .fil0 {fill:#003399}
   ]]>
  </style>
 </defs>
 <g id="Слой_x0020_1">
  <metadata id="CorelCorpID_0Corel-Layer"/>
  <path class="fil0" d="M5.35 15.54c-1.66,-2.33 -3.15,-4.72 -4.56,-7.37 -0.52,-0.85 -0.8,-1.82 -0.8,-2.82 0,-2.96 2.4,-5.36 5.36,-5.36 2.96,0 5.36,2.4 5.36,5.36 0,1 -0.28,1.97 -0.8,2.82 -1.41,2.65 -2.9,5.04 -4.56,7.37zm0 -13.18c1.66,0 3,1.34 3,3 0,1.66 -1.34,3 -3,3 -1.66,0 -3,-1.34 -3,-3 0,-1.66 1.34,-3 3,-3z"/>
 </g>
</svg>
