<?xml version="1.0" encoding="UTF-8"?>
<!DOCTYPE svg PUBLIC "-//W3C//DTD SVG 1.1//EN" "http://www.w3.org/Graphics/SVG/1.1/DTD/svg11.dtd">
<!-- Creator: CorelDRAW 2021.5 -->
<svg xmlns="http://www.w3.org/2000/svg" xml:space="preserve" width="5.0478mm" height="5.0478mm" version="1.1" style="shape-rendering:geometricPrecision; text-rendering:geometricPrecision; image-rendering:optimizeQuality; fill-rule:evenodd; clip-rule:evenodd"
viewBox="0 0 13.4 13.4"
 xmlns:xlink="http://www.w3.org/1999/xlink"
 xmlns:xodm="http://www.corel.com/coreldraw/odm/2003">
 <defs>
  <style type="text/css">
   <![CDATA[
    .fil0 {fill:#003399}
    .fil1 {fill:#003399;fill-rule:nonzero}
   ]]>
  </style>
 </defs>
 <g id="Слой_x0020_1">
  <metadata id="CorelCorpID_0Corel-Layer"/>
  <g id="_2174922062432">
   <g id="Пиктограмма_x0020_телефон_x0020_office-phone.cdr">
    <path class="fil0" d="M3.29 3.66l0 0.01 0 0.29c0,0.01 0,0.03 0,0.04l0.01 0.37c0,0.06 0.01,0.13 0.01,0.18 0,0.12 0.02,0.24 0.03,0.36 0.07,0.85 0.27,1.85 0.57,2.64 0.01,0.03 0.02,0.04 0.03,0.07l0.06 0.14c0.02,0.05 0.04,0.09 0.06,0.13 0.1,0.22 0.22,0.42 0.36,0.62l0.32 0.46c0.19,0.29 0.41,0.56 0.63,0.83l0.16 0.18c0.01,0.01 0.01,0.01 0.02,0.03 0.02,0.02 0.03,0.03 0.05,0.05l0.09 0.1c0.02,0.02 0.03,0.03 0.04,0.05l0.24 0.25c0.02,0.02 0.03,0.03 0.05,0.05 0.01,0.01 0.01,0.01 0.03,0.02 0.01,0.01 0.01,0.01 0.02,0.02l0.15 0.14c0.15,0.14 0.44,0.35 0.61,0.46 0.04,0.03 0.08,0.05 0.12,0.07 0.13,0.08 0.26,0.14 0.39,0.2 0.09,0.04 0.19,0.07 0.29,0.1 0.05,0.01 0.1,0.03 0.16,0.04 0.05,0.01 0.11,0.02 0.17,0.02l0 0 0.51 0c0.09,0 0.54,-0.15 0.66,-0.19 0.15,-0.05 0.36,-0.13 0.51,-0.21 0.02,-0.01 0.03,-0.02 0.05,-0.02 0.02,-0.01 0.03,-0.01 0.05,-0.02 0.04,-0.02 0.06,-0.03 0.09,-0.05l0.09 -0.05c0.04,-0.02 0.16,-0.09 0.18,-0.11 -0.13,-0.09 -0.41,-0.33 -0.56,-0.44l-0.42 -0.33c-0.02,-0.02 -0.04,-0.04 -0.07,-0.06l-0.35 -0.28c-0.02,-0.02 -0.05,-0.04 -0.07,-0.05 -0.02,-0.02 -0.04,-0.04 -0.07,-0.06l-0.14 -0.11c-0.03,-0.02 -0.05,-0.04 -0.07,-0.06 -0.08,-0.07 -0.42,-0.34 -0.49,-0.39 -0.07,0.02 -0.24,0.15 -0.53,0.15 -0.42,0 -0.59,-0.32 -0.78,-0.63l-0.26 -0.45c-0.07,-0.13 -0.14,-0.25 -0.21,-0.38l-0.16 -0.31c-0.04,-0.08 -0.08,-0.16 -0.12,-0.23l-0.48 -0.93c-0.03,-0.06 -0.05,-0.1 -0.08,-0.16 -0.13,-0.26 -0.22,-0.38 -0.26,-0.69 -0.03,-0.26 0.05,-0.52 0.23,-0.7 0.06,-0.06 0.22,-0.17 0.29,-0.19 0,-0.06 0.01,-0.16 -0,-0.21 -0.01,-0.08 -0,-0.33 -0.01,-0.42l-0.02 -0.83c-0,-0.04 0,-0.07 0,-0.11 0,-0.05 -0.01,-0.07 -0.01,-0.11 0,-0.04 0,-0.07 0,-0.11 0,-0.04 -0.01,-0.06 -0.01,-0.1 0,-0.04 0,-0.07 0,-0.11 -0,-0.04 -0.01,-0.06 -0.01,-0.1 0,-0.04 0,-0.07 0,-0.11 -0,-0.04 -0.01,-0.06 -0.01,-0.1 0,-0.04 0,-0.07 0,-0.11l-0.01 -0.31c0,-0.16 0.02,-0.12 -0.08,-0.12 -0.06,0 -0.14,0.01 -0.19,0.02 -0.26,0.04 -0.52,0.1 -0.76,0.21l-0.14 0.07c-0.12,0.06 -0.22,0.13 -0.32,0.21 -0.29,0.24 -0.5,0.57 -0.57,0.94 -0.02,0.11 -0.05,0.25 -0.05,0.38l0 0.01z"/>
    <path class="fil0" d="M8.04 8.96c0.01,0.03 0.12,0.1 0.14,0.12l0.73 0.58c0.05,0.04 0.09,0.07 0.14,0.11l1.01 0.81c0.05,0.04 0.26,0.21 0.29,0.23l0.16 -0.49c0.02,-0.07 0.04,-0.13 0.05,-0.18l0 -0.05c-0,-0.04 -0.02,-0.08 -0.05,-0.14 -0.06,-0.12 -0.22,-0.22 -0.32,-0.3 -0.04,-0.03 -0.07,-0.06 -0.11,-0.09 -0.02,-0.02 -0.04,-0.03 -0.06,-0.04 -0.17,-0.13 -0.87,-0.68 -1,-0.76 -0.12,-0.07 -0.21,-0.11 -0.36,-0.11 -0.02,0 -0.58,0.31 -0.62,0.32z"/>
    <path class="fil0" d="M5.66 1.81c0,0.07 0,0.15 0,0.22 -0,0.07 0.01,0.14 0.01,0.21 0,0.29 0.01,0.59 0.01,0.88 -0,0.04 0.01,0.06 0.01,0.1l0.01 0.33c0,0.14 0.01,0.29 0.01,0.43l0.02 0.43c0.01,0.06 -0,0.15 0.04,0.18 0.11,0.06 0.39,-0.09 0.47,-0.16 0.03,-0.02 0.08,-0.08 0.11,-0.11 0.04,-0.04 0.07,-0.08 0.1,-0.12 0.03,-0.04 0.02,-0.03 0.02,-0.08l-0 -0.34c0,-0.07 -0.01,-0.14 -0.01,-0.21 0,-0.07 -0,-0.15 0,-0.22 0,-0.04 -0.01,-0.06 -0.01,-0.1l0 -0.34c-0,-0.03 -0.01,-0.06 -0.01,-0.1 0,-0.07 0,-0.29 -0,-0.33 -0.03,-0.2 0.08,-0.31 -0.27,-0.52 -0.03,-0.02 -0.05,-0.03 -0.07,-0.04 -0.07,-0.05 -0.25,-0.11 -0.34,-0.11l-0.11 0.01z"/>
   </g>
   <path class="fil1" d="M6.7 0c1.85,0 3.53,0.75 4.74,1.96 1.21,1.21 1.96,2.89 1.96,4.74 0,1.85 -0.75,3.53 -1.96,4.74 -1.21,1.21 -2.89,1.96 -4.74,1.96 -1.85,0 -3.53,-0.75 -4.74,-1.96 -1.21,-1.21 -1.96,-2.89 -1.96,-4.74 0,-1.85 0.75,-3.53 1.96,-4.74 1.21,-1.21 2.89,-1.96 4.74,-1.96zm4.12 2.58c-1.05,-1.05 -2.51,-1.71 -4.12,-1.71 -1.61,0 -3.06,0.65 -4.12,1.71 -1.05,1.05 -1.71,2.51 -1.71,4.12 0,1.61 0.65,3.06 1.71,4.12 1.05,1.05 2.51,1.71 4.12,1.71 1.61,0 3.06,-0.65 4.12,-1.71 1.05,-1.05 1.71,-2.51 1.71,-4.12 0,-1.61 -0.65,-3.06 -1.71,-4.12z"/>
  </g>
 </g>
</svg>
