<?xml version="1.0" encoding="UTF-8"?>
<!DOCTYPE svg PUBLIC "-//W3C//DTD SVG 1.1//EN" "http://www.w3.org/Graphics/SVG/1.1/DTD/svg11.dtd">
<!-- Creator: CorelDRAW 2021.5 -->
<svg xmlns="http://www.w3.org/2000/svg" xml:space="preserve" width="4.4736mm" height="4.4736mm" version="1.1" style="shape-rendering:geometricPrecision; text-rendering:geometricPrecision; image-rendering:optimizeQuality; fill-rule:evenodd; clip-rule:evenodd"
viewBox="0 0 10.56 10.56"
 xmlns:xlink="http://www.w3.org/1999/xlink"
 xmlns:xodm="http://www.corel.com/coreldraw/odm/2003">
 <defs>
  <style type="text/css">
   <![CDATA[
    .fil0 {fill:#00A9D4}
    .fil1 {fill:#FEFEFF}
   ]]>
  </style>
 </defs>
 <g id="Слой_x0020_1">
  <metadata id="CorelCorpID_0Corel-Layer"/>
  <g id="_2175009978032">
   <path class="fil0" d="M-0 2.66c0,0.61 0.05,0.93 0.33,1.46 0.12,0.23 0.1,0.06 0.03,0.53 -0.08,0.56 -0.02,1.36 0.12,1.88 0.09,0.33 0.19,0.58 0.32,0.88 0.06,0.13 0.13,0.25 0.2,0.37 0.17,0.27 0.29,0.46 0.5,0.7 0.46,0.54 1.23,1.15 1.88,1.38 0.07,0.03 0.14,0.05 0.21,0.08 0.14,0.05 0.31,0.1 0.46,0.14 0.55,0.14 1.25,0.2 1.84,0.12 0.72,-0.1 0.21,-0.04 0.97,0.22 0.25,0.08 0.5,0.13 0.75,0.14l0.28 0c0.84,-0.04 1.64,-0.46 2.14,-1.18 0.08,-0.12 0.19,-0.27 0.25,-0.41 0.16,-0.35 0.25,-0.73 0.27,-1.11l0 -0.29c-0.02,-0.35 -0.1,-0.69 -0.26,-1 -0.2,-0.4 -0.17,-0.2 -0.1,-0.66 0.08,-0.58 0.02,-1.31 -0.11,-1.84 -0.09,-0.37 -0.12,-0.37 -0.22,-0.67 -0.03,-0.09 -0.06,-0.13 -0.1,-0.21 -0.05,-0.12 -0.13,-0.27 -0.2,-0.38 -0.14,-0.23 -0.32,-0.51 -0.49,-0.7 -0.28,-0.32 -0.57,-0.61 -0.92,-0.85 -0.07,-0.05 -0.1,-0.07 -0.17,-0.12 -0.32,-0.21 -0.62,-0.36 -0.99,-0.5 -0.68,-0.26 -1.62,-0.37 -2.35,-0.27 -0.13,0.02 -0.25,0.05 -0.38,0.05 -0.02,0 -0.04,-0.03 -0.06,-0.04 -0.39,-0.22 -0.82,-0.35 -1.26,-0.37l-0.31 0c-0.36,0.02 -0.71,0.11 -1.03,0.26 -0.23,0.11 -0.41,0.23 -0.6,0.39 -0.54,0.43 -1,1.29 -1,2.01z"/>
   <path class="fil1" d="M4.94 2.16c-1.83,0.21 -2.21,1.76 -1.49,2.7 0.05,0.06 0.09,0.09 0.14,0.15 0.1,0.12 0.38,0.29 0.53,0.37 0.65,0.35 1.27,0.35 1.75,0.68 0.22,0.15 0.46,0.4 0.37,0.8 -0.15,0.6 -1.13,0.76 -1.59,0.31 -0.45,-0.44 -0.44,-0.86 -0.83,-0.98 -0.17,-0.05 -0.38,-0 -0.48,0.09 -0.56,0.5 0.19,1.69 1.21,2.02 1.15,0.38 2.95,-0.13 2.9,-1.72 -0.02,-0.53 -0.27,-0.89 -0.64,-1.17 -0.73,-0.57 -1.57,-0.54 -2.12,-0.91 -0.22,-0.15 -0.46,-0.4 -0.37,-0.79 0.15,-0.59 1.14,-0.76 1.59,-0.31 0.32,0.32 0.29,0.4 0.5,0.72 0.15,0.23 0.53,0.43 0.82,0.17 0.57,-0.5 -0.23,-1.72 -1.21,-2.02 -0.33,-0.1 -0.71,-0.13 -1.07,-0.09z"/>
  </g>
 </g>
</svg>
