<?xml version="1.0" encoding="UTF-8"?>
<!DOCTYPE svg PUBLIC "-//W3C//DTD SVG 1.1//EN" "http://www.w3.org/Graphics/SVG/1.1/DTD/svg11.dtd">
<!-- Creator: CorelDRAW 2021.5 -->
<svg xmlns="http://www.w3.org/2000/svg" xml:space="preserve" width="4.6676mm" height="4.6627mm" version="1.1" style="shape-rendering:geometricPrecision; text-rendering:geometricPrecision; image-rendering:optimizeQuality; fill-rule:evenodd; clip-rule:evenodd"
viewBox="0 0 11.48 11.47"
 xmlns:xlink="http://www.w3.org/1999/xlink"
 xmlns:xodm="http://www.corel.com/coreldraw/odm/2003">
 <defs>
  <style type="text/css">
   <![CDATA[
    .fil0 {fill:#00ACE1}
    .fil1 {fill:#F6F6F6}
   ]]>
  </style>
 </defs>
 <g id="Слой_x0020_1">
  <metadata id="CorelCorpID_0Corel-Layer"/>
  <g id="_2175023699088">
   <path class="fil0" d="M0.06 6.65c0.04,0.04 0.15,0.61 0.18,0.72 0.27,0.98 0.89,1.77 0.91,1.84l0.51 0.57c0.18,0.19 0.37,0.33 0.59,0.51 1.33,1.09 3.42,1.46 5.16,0.93 1.11,-0.34 1.91,-0.91 2.64,-1.71 0.35,-0.38 0.59,-0.78 0.86,-1.31 0.21,-0.42 0.31,-0.78 0.42,-1.22 0.04,-0.15 0.06,-0.39 0.11,-0.47 -0.05,-0.31 0.24,-1.13 -0.29,-2.69 -0.77,-2.26 -3.03,-3.86 -5.49,-3.82 -3.3,0.05 -5.73,2.76 -5.67,5.93 0,0.22 0.07,0.53 0.06,0.72z"/>
   <path class="fil1" d="M1.65 4.93c0.36,0.25 2.14,1.33 2.2,1.38 0.12,0.12 0.26,1.54 0.41,1.8 0.17,-0.09 0.76,-0.62 0.91,-0.65 0.12,0.18 0.27,0.28 0.41,0.42l0.85 0.81c0.15,0.18 0.29,0.26 0.42,0.41 0.07,-0.09 1.62,-4.67 1.84,-5.3 0.07,-0.2 0.21,-0.56 0.25,-0.75 -0.15,0.01 -3.43,0.87 -3.65,0.92 -0.41,0.11 -3.55,0.88 -3.64,0.95z"/>
   <path class="fil0" d="M4.45 6.25c0.01,0.17 0.1,0.7 0.17,0.81 0.11,-0.07 0.18,-0.14 0.27,-0.22 0.09,-0.08 0.19,-0.15 0.27,-0.24 0.05,-0.05 0.07,-0.08 0.12,-0.13 0.05,-0.04 0.08,-0.07 0.13,-0.11l2.6 -2.43c0.05,-0.04 0.09,-0.07 0.13,-0.11l0.66 -0.64 -2.18 1.54c-0.36,0.26 -0.74,0.51 -1.08,0.77l-1.09 0.77z"/>
  </g>
 </g>
</svg>
