<?xml version="1.0" encoding="UTF-8"?>
<!DOCTYPE svg PUBLIC "-//W3C//DTD SVG 1.1//EN" "http://www.w3.org/Graphics/SVG/1.1/DTD/svg11.dtd">
<!-- Creator: CorelDRAW 2021.5 -->
<svg xmlns="http://www.w3.org/2000/svg" xml:space="preserve" width="4.8702mm" height="5.1353mm" version="1.1" style="shape-rendering:geometricPrecision; text-rendering:geometricPrecision; image-rendering:optimizeQuality; fill-rule:evenodd; clip-rule:evenodd"
viewBox="0 0 24.32 25.65"
 xmlns:xlink="http://www.w3.org/1999/xlink"
 xmlns:xodm="http://www.corel.com/coreldraw/odm/2003">
 <defs>
  <style type="text/css">
   <![CDATA[
    .fil1 {fill:#7260F3;fill-rule:nonzero}
    .fil0 {fill:white;fill-rule:nonzero}
   ]]>
  </style>
 </defs>
 <g id="Слой_x0020_1">
  <metadata id="CorelCorpID_0Corel-Layer"/>
  <g id="_2139618338432">
   <path class="fil0" d="M21.58 2.5c-0.64,-0.59 -3.21,-2.46 -8.95,-2.48 0,0 -6.77,-0.41 -10.06,2.62 -1.84,1.84 -2.48,4.52 -2.55,7.85 -0.07,3.33 -0.16,9.57 5.86,11.27l0.01 0 -0 2.58c0,0 -0.04,1.05 0.65,1.26 0.83,0.26 1.32,-0.54 2.12,-1.39 0.44,-0.47 1.04,-1.16 1.49,-1.69 4.12,0.35 7.28,-0.45 7.64,-0.56 0.83,-0.27 5.53,-0.87 6.3,-7.11 0.79,-6.43 -0.38,-10.5 -2.5,-12.34z"/>
   <path class="fil1" d="M20.24 3.8c-0.54,-0.49 -2.86,-1.95 -7.72,-1.97 0,0 -5.75,-0.38 -8.54,2.15 -1.55,1.53 -2.08,3.81 -2.13,6.59 -0.06,2.78 -0.35,8.1 4.73,9.51l0 0c0,0 -0.02,3.95 -0.02,4.29 0,0.24 0.04,0.41 0.18,0.44 0.1,0.02 0.25,-0.03 0.38,-0.15 0.81,-0.82 3.42,-3.96 3.42,-3.96 3.5,0.23 6.28,-0.46 6.57,-0.56 0.71,-0.23 4.52,-0.55 5.16,-5.77 0.67,-5.37 -0.25,-9.04 -2.04,-10.58z"/>
   <path class="fil0" d="M15.31 10.33c0.01,0.18 -0.13,0.33 -0.31,0.34 -0.18,0.01 -0.33,-0.13 -0.34,-0.31 -0.03,-0.55 -0.17,-0.97 -0.44,-1.25 -0.26,-0.27 -0.66,-0.42 -1.19,-0.45 -0.18,-0.01 -0.32,-0.16 -0.31,-0.34 0.01,-0.18 0.16,-0.32 0.34,-0.31 0.7,0.04 1.24,0.25 1.62,0.65 0.38,0.39 0.59,0.95 0.62,1.66z"/>
   <path class="fil0" d="M16.98 10.91c-0,0.18 -0.15,0.32 -0.33,0.32 -0.18,-0 -0.32,-0.15 -0.32,-0.33 0.01,-0.55 -0.06,-1.06 -0.23,-1.52 -0.16,-0.45 -0.41,-0.86 -0.74,-1.23 -0.33,-0.36 -0.73,-0.65 -1.2,-0.85 -0.47,-0.21 -1.01,-0.33 -1.63,-0.38 -0.18,-0.01 -0.31,-0.17 -0.3,-0.35 0.01,-0.18 0.17,-0.31 0.35,-0.3 0.69,0.05 1.3,0.19 1.84,0.43 0.55,0.24 1.02,0.57 1.42,1.01 0.39,0.43 0.69,0.91 0.88,1.45 0.19,0.53 0.28,1.11 0.26,1.75z"/>
   <path class="fil0" d="M18.68 11.58c-0.01,0.18 -0.16,0.32 -0.33,0.31 -0.18,-0.01 -0.32,-0.16 -0.31,-0.33 0.01,-0.33 -0,-0.66 -0.04,-0.98 -0.16,-1.39 -0.76,-2.71 -1.67,-3.7 -0.9,-0.98 -2.12,-1.62 -3.52,-1.67 -0.25,-0.01 -0.51,0 -0.78,0.03 -0.18,0.02 -0.34,-0.11 -0.36,-0.29 -0.02,-0.18 0.11,-0.34 0.29,-0.36 0.29,-0.03 0.59,-0.05 0.87,-0.03 1.59,0.06 2.96,0.78 3.97,1.88 1.01,1.09 1.66,2.54 1.84,4.06 0.04,0.35 0.06,0.72 0.04,1.08z"/>
   <path class="fil0" d="M13.12 14.69c0,0 0.46,0.04 0.7,-0.26l0.48 -0.6c0.23,-0.3 0.79,-0.49 1.33,-0.19 0.41,0.23 0.81,0.49 1.19,0.76 0.36,0.27 1.1,0.88 1.11,0.88 0.35,0.3 0.44,0.74 0.19,1.2 0,0 -0,0.01 -0,0.01 -0.26,0.46 -0.6,0.87 -1,1.23 -0,0 -0,0 -0.01,0.01 -0.34,0.29 -0.68,0.45 -1.01,0.49 -0.04,0.01 -0.08,0.01 -0.12,0.01 -0.01,0 -0.02,-0 -0.03,-0 -0,0 -0.01,0 -0.01,0 -0.14,0 -0.28,-0.02 -0.42,-0.07l-0.01 -0.02c-0.51,-0.14 -1.36,-0.5 -2.78,-1.29 -0.82,-0.45 -1.6,-0.97 -2.34,-1.54 -0.37,-0.29 -0.72,-0.6 -1.05,-0.93l-0.04 -0.04 -0.03 -0.04 -0 -0 -0.04 -0.04c-0.01,-0.01 -0.02,-0.02 -0.04,-0.04 -0.33,-0.33 -0.64,-0.68 -0.93,-1.05 -0.58,-0.73 -1.1,-1.52 -1.54,-2.34 -0.78,-1.42 -1.14,-2.27 -1.29,-2.78l-0.02 -0.01c-0.04,-0.13 -0.07,-0.27 -0.07,-0.42 0,-0 0,-0.01 0,-0.01 -0,-0.01 -0,-0.02 -0,-0.03 0,-0.04 0,-0.08 0.01,-0.11 0.04,-0.33 0.2,-0.67 0.49,-1.01 0,-0 0,-0 0.01,-0.01 0.35,-0.4 0.77,-0.73 1.23,-1 0,0 0.01,-0 0.01,-0 0.46,-0.24 0.9,-0.16 1.2,0.19 0,0 0.62,0.74 0.89,1.11 0.27,0.38 0.53,0.78 0.76,1.19 0.3,0.55 0.11,1.1 -0.18,1.33l-0.6 0.48c-0.3,0.25 -0.26,0.7 -0.26,0.7 0,0 0.89,3.38 4.23,4.23z"/>
  </g>
 </g>
</svg>
