<?xml version="1.0" encoding="UTF-8"?>
<!DOCTYPE svg PUBLIC "-//W3C//DTD SVG 1.1//EN" "http://www.w3.org/Graphics/SVG/1.1/DTD/svg11.dtd">
<!-- Creator: CorelDRAW 2021.5 -->
<svg xmlns="http://www.w3.org/2000/svg" xml:space="preserve" width="6.5802mm" height="6.5802mm" version="1.1" style="shape-rendering:geometricPrecision; text-rendering:geometricPrecision; image-rendering:optimizeQuality; fill-rule:evenodd; clip-rule:evenodd"
viewBox="0 0 24.16 24.16"
 xmlns:xlink="http://www.w3.org/1999/xlink"
 xmlns:xodm="http://www.corel.com/coreldraw/odm/2003">
 <defs>
  <style type="text/css">
   <![CDATA[
    .str0 {stroke:#003399;stroke-width:1.24;stroke-miterlimit:22.9256}
    .fil1 {fill:none}
    .fil0 {fill:#003399}
   ]]>
  </style>
 </defs>
 <g id="Слой_x0020_1">
  <metadata id="CorelCorpID_0Corel-Layer"/>
  <g id="_2174859119424">
   <path class="fil0" d="M4.89 16.92l0 -4.39c0.18,0 0.48,0.09 0.66,0.13l4.75 0.99c0,0.41 -0,0.82 -0,1.22 0,0.39 0.25,0.66 0.6,0.66l2.38 0c0.17,0 0.33,-0.09 0.42,-0.18 0.28,-0.28 0.18,-1.13 0.18,-1.71 0.2,-0.02 0.45,-0.09 0.66,-0.14 0.53,-0.11 4.57,-0.98 4.75,-0.99l0 4.39c0,0.13 -0.16,0.16 -0.3,0.16l-13.79 0c-0.13,0 -0.3,-0.04 -0.3,-0.16zm6.66 -4.91l1.06 0 0 2.28 -1.06 0 0 -2.28zm-1.25 -0.66l0 1.02c-0.16,-0 -0.52,-0.09 -0.67,-0.13 -1.22,-0.29 -2.78,-0.58 -4.06,-0.86l-0.68 -0.14c0,-0.62 -0.05,-3.61 0.03,-3.96 0.07,-0.02 0.08,-0.03 0.16,-0.03l13.99 0c0.09,0 0.09,0.02 0.16,0.03 0.08,0.35 0.03,3.35 0.03,3.96l-5.41 1.12 0 -1.02c0,-0.33 -0.3,-0.59 -0.63,-0.59l-2.31 0c-0.33,0 -0.63,0.26 -0.63,0.59zm0.43 -5.74l2.7 0 0 0.4 -2.7 0 0 -0.4zm-1.25 -0.4l0 0.79 -4.49 0c-0.68,0 -1.35,0.67 -1.35,1.35l0 9.66c0,0.3 0.2,0.65 0.4,0.85l0.03 0.03c0.03,0.03 0.07,0.06 0.1,0.09 0.31,0.28 0.78,0.34 1.21,0.34l13.39 0c0.61,0 1.26,-0.15 1.55,-0.72 0.07,-0.13 0.2,-0.4 0.2,-0.59l0 -9.66c0,-0.68 -0.67,-1.35 -1.35,-1.35l-4.49 0c0,-0.96 0.15,-1.65 -0.86,-1.65l-3.5 0c-0.61,0 -0.86,0.24 -0.86,0.86z"/>
   <circle class="fil1 str0" cx="12.08" cy="12.08" r="11.46"/>
  </g>
 </g>
</svg>
